<svg width="22" height="23" viewBox="0 0 22 23" fill="none" xmlns="http://www.w3.org/2000/svg">
<path d="M10.946 5.8894C7.84058 5.8894 5.33569 8.39429 5.33569 11.4998C5.33569 14.6052 7.84058 17.1101 10.946 17.1101C14.0515 17.1101 16.5564 14.6052 16.5564 11.4998C16.5564 8.39429 14.0515 5.8894 10.946 5.8894ZM10.946 15.1472C8.93921 15.1472 7.29858 13.5115 7.29858 11.4998C7.29858 9.48804 8.93433 7.85229 10.946 7.85229C12.9578 7.85229 14.5935 9.48804 14.5935 11.4998C14.5935 13.5115 12.9529 15.1472 10.946 15.1472ZM18.0945 5.65991C18.0945 6.38745 17.5085 6.96851 16.7859 6.96851C16.0584 6.96851 15.4773 6.38257 15.4773 5.65991C15.4773 4.93726 16.0632 4.35132 16.7859 4.35132C17.5085 4.35132 18.0945 4.93726 18.0945 5.65991ZM21.8103 6.98804C21.7273 5.23511 21.3269 3.68237 20.0427 2.40308C18.7634 1.12378 17.2107 0.723389 15.4578 0.635498C13.6511 0.532959 8.23608 0.532959 6.42944 0.635498C4.6814 0.718506 3.12866 1.1189 1.84448 2.39819C0.560303 3.67749 0.164795 5.23022 0.0769043 6.98315C-0.0256348 8.78979 -0.0256348 14.2048 0.0769043 16.0115C0.159912 17.7644 0.560303 19.3171 1.84448 20.5964C3.12866 21.8757 4.67651 22.2761 6.42944 22.364C8.23608 22.4666 13.6511 22.4666 15.4578 22.364C17.2107 22.281 18.7634 21.8806 20.0427 20.5964C21.322 19.3171 21.7224 17.7644 21.8103 16.0115C21.9128 14.2048 21.9128 8.79468 21.8103 6.98804ZM19.4763 17.95C19.0955 18.907 18.3582 19.6443 17.3962 20.03C15.9558 20.6013 12.5378 20.4695 10.946 20.4695C9.35425 20.4695 5.9314 20.5964 4.49585 20.03C3.53882 19.6492 2.80151 18.9119 2.41577 17.95C1.84448 16.5095 1.97632 13.0916 1.97632 11.4998C1.97632 9.90796 1.84937 6.48511 2.41577 5.04956C2.79663 4.09253 3.53394 3.35522 4.49585 2.96948C5.93628 2.39819 9.35425 2.53003 10.946 2.53003C12.5378 2.53003 15.9607 2.40308 17.3962 2.96948C18.3533 3.35034 19.0906 4.08765 19.4763 5.04956C20.0476 6.48999 19.9158 9.90796 19.9158 11.4998C19.9158 13.0916 20.0476 16.5144 19.4763 17.95Z" fill="white"/>
</svg>
