<svg width="23" height="23" viewBox="0 0 23 23" fill="none" xmlns="http://www.w3.org/2000/svg">
<path d="M5.17334 22.437H0.638184V7.83252H5.17334V22.437ZM2.90332 5.84033C1.45312 5.84033 0.276855 4.63916 0.276855 3.18896C0.276855 2.49238 0.553572 1.82433 1.04613 1.33177C1.53869 0.839216 2.20674 0.5625 2.90332 0.5625C3.5999 0.5625 4.26795 0.839216 4.76051 1.33177C5.25307 1.82433 5.52979 2.49238 5.52979 3.18896C5.52979 4.63916 4.35303 5.84033 2.90332 5.84033ZM22.147 22.437H17.6216V15.3276C17.6216 13.6333 17.5874 11.4604 15.2637 11.4604C12.9058 11.4604 12.5444 13.3013 12.5444 15.2056V22.437H8.01416V7.83252H12.3638V9.82471H12.4272C13.0327 8.67725 14.5117 7.46631 16.7183 7.46631C21.3081 7.46631 22.1519 10.4888 22.1519 14.4146V22.437H22.147Z" fill="white"/>
</svg>
