<svg width="24" height="24" viewBox="0 0 24 24" fill="none" xmlns="http://www.w3.org/2000/svg">
<g clip-path="url(#clip0_2210_4008)">
<path d="M18.2039 5.76199C16.5579 4.11499 14.3689 3.20699 12.0369 3.20599C7.2299 3.20599 3.3189 7.11499 3.3179 11.92C3.3159 13.449 3.7169 14.952 4.4809 16.277L3.2439 20.793L7.8659 19.581C9.1449 20.277 10.5769 20.642 12.0329 20.642H12.0369C16.8419 20.642 20.7529 16.732 20.7549 11.927C20.7559 9.59899 19.8499 7.40999 18.2039 5.76199Z" stroke="#15181F" stroke-width="1.5" stroke-linecap="round" stroke-linejoin="round"/>
<path d="M13.095 13.56L13.501 13.157C13.874 12.787 14.464 12.74 14.894 13.042C15.31 13.334 15.686 13.596 16.036 13.84C16.592 14.226 16.659 15.018 16.18 15.496L15.821 15.855" stroke="#15181F" stroke-width="1.5" stroke-linecap="round" stroke-linejoin="round"/>
<path d="M8.14502 8.17902L8.50402 7.82002C8.98202 7.34202 9.77402 7.40902 10.16 7.96402C10.403 8.31402 10.665 8.69002 10.958 9.10602C11.26 9.53602 11.214 10.126 10.843 10.499L10.44 10.905" stroke="#15181F" stroke-width="1.5" stroke-linecap="round" stroke-linejoin="round"/>
<path d="M15.821 15.855C14.34 17.329 11.851 16.077 9.88599 14.111" stroke="#15181F" stroke-width="1.5" stroke-linecap="round" stroke-linejoin="round"/>
<path d="M9.88807 14.114C7.92307 12.148 6.67107 9.66002 8.14507 8.17902" stroke="#15181F" stroke-width="1.5" stroke-linecap="round" stroke-linejoin="round"/>
<path d="M10.4402 10.905C10.7592 11.408 11.1682 11.906 11.6302 12.368L11.6322 12.37C12.0942 12.832 12.5922 13.241 13.0952 13.56" stroke="#15181F" stroke-width="1.5" stroke-linecap="round" stroke-linejoin="round"/>
</g>
<defs>
<clipPath id="clip0_2210_4008">
<rect width="24" height="24" fill="white"/>
</clipPath>
</defs>
</svg>
