<svg width="24" height="17" viewBox="0 0 24 17" fill="none" xmlns="http://www.w3.org/2000/svg">
<path d="M23.3603 2.77427C23.0877 1.7478 22.2845 0.939377 21.2646 0.665028C19.4161 0.166504 12.0037 0.166504 12.0037 0.166504C12.0037 0.166504 4.5914 0.166504 2.74283 0.665028C1.72299 0.939421 0.919781 1.7478 0.647168 2.77427C0.151855 4.63482 0.151855 8.51668 0.151855 8.51668C0.151855 8.51668 0.151855 12.3985 0.647168 14.2591C0.919781 15.2856 1.72299 16.0603 2.74283 16.3346C4.5914 16.8332 12.0037 16.8332 12.0037 16.8332C12.0037 16.8332 19.416 16.8332 21.2646 16.3346C22.2845 16.0603 23.0877 15.2856 23.3603 14.2591C23.8556 12.3985 23.8556 8.51668 23.8556 8.51668C23.8556 8.51668 23.8556 4.63482 23.3603 2.77427ZM9.57946 12.0411V4.99224L15.7747 8.51676L9.57946 12.0411Z" fill="white"/>
</svg>
