<svg width="159" height="60" viewBox="0 0 159 60" fill="none" xmlns="http://www.w3.org/2000/svg">
<g clip-path="url(#clip0_1568_1019)">
<path d="M104.766 10.7668H95.0984V1.20417C95.0984 0.845157 94.8048 0.554688 94.4418 0.554688H92.8415C92.4786 0.554688 92.1849 0.845157 92.1849 1.20417V10.7668H82.5174C82.1544 10.7668 81.8608 11.0573 81.8608 11.4163V12.9992C81.8608 13.3582 82.1544 13.6487 82.5174 13.6487H92.1849V23.2113C92.1849 23.5704 92.4786 23.8608 92.8415 23.8608H94.4418C94.8048 23.8608 95.0984 23.5704 95.0984 23.2113V13.6487H104.766C105.129 13.6487 105.423 13.3582 105.423 12.9992V11.4163C105.423 11.0573 105.129 10.7668 104.766 10.7668Z" fill="white"/>
<path d="M155.823 28.5736C155.46 28.5736 155.166 28.8641 155.166 29.2231C155.166 44.6213 140.747 57.1474 125.18 57.1474C109.613 57.1474 95.1941 44.0991 95.1941 29.2231C95.1941 28.8641 94.9004 28.5736 94.5375 28.5736H92.9702C92.6073 28.5736 92.3136 28.8641 92.3136 29.2231C92.3136 45.9072 107.366 59.9998 125.183 59.9998C143.001 59.9998 158.053 46.1911 158.053 29.2231C158.053 28.8641 157.759 28.5736 157.396 28.5736H155.823Z" fill="white"/>
<path d="M37.3009 0.000337207C30.8174 0.000337207 25.5415 5.50621 25.5415 12.2751C25.5415 19.0441 30.8174 24.377 37.3009 24.377C43.7845 24.377 49.1033 18.9494 49.1033 12.2751C49.1033 5.60086 43.8109 0.000337207 37.3009 0.000337207ZM46.1469 12.2751C46.1469 17.4057 42.1776 21.58 37.3009 21.58C32.4243 21.58 28.455 17.4057 28.455 12.2751C28.455 7.14459 32.4243 2.79733 37.3009 2.79733C42.1776 2.79733 46.1469 7.04995 46.1469 12.2751Z" fill="white"/>
<path d="M62.0736 10.0036C56.9462 9.29211 55.3723 8.50229 55.3393 6.61913C55.3261 5.8489 55.6297 5.1472 56.2368 4.53362C57.3355 3.42723 59.2559 2.79407 61.5061 2.79407C65.1092 2.79407 67.4617 4.24642 68.3064 6.9912C68.3922 7.26535 68.6463 7.45138 68.9366 7.45138H70.5798C70.781 7.45138 70.9724 7.35999 71.0945 7.20334C71.2199 7.04668 71.2661 6.84433 71.2199 6.65177C70.1937 2.35999 66.7292 -0.00292969 61.4632 -0.00292969C55.501 -0.00292969 52.383 3.33258 52.383 6.64198C52.4787 11.5082 57.6985 12.2621 61.5094 12.8104L61.6315 12.8267C67.4947 13.6557 68.7386 15.108 68.8013 17.0597C68.8739 18.0127 68.5539 18.9168 67.9039 19.5924C66.6896 20.8326 64.5417 21.5734 62.1561 21.5734C57.6655 21.5734 54.8081 19.8274 54.1152 16.6583C54.0492 16.358 53.782 16.1459 53.4718 16.1459H51.8716C51.6802 16.1459 51.4954 16.2307 51.37 16.3744C51.2447 16.5212 51.1919 16.7138 51.2216 16.8998C51.987 21.5767 56.0916 24.3672 62.1957 24.3672C65.4358 24.3672 68.2833 23.362 70.009 21.6061H70.0123C71.1671 20.4148 71.8006 18.7177 71.7511 16.9324C71.5135 12.0597 66.9602 10.7183 62.0703 9.99381L62.0736 10.0036Z" fill="white"/>
<path d="M77.4889 6.96509H75.8887C75.5261 6.96509 75.2321 7.25587 75.2321 7.61456V23.2118C75.2321 23.5705 75.5261 23.8613 75.8887 23.8613H77.4889C77.8516 23.8613 78.1455 23.5705 78.1455 23.2118V7.61456C78.1455 7.25587 77.8516 6.96509 77.4889 6.96509Z" fill="white"/>
<path d="M111.682 6.96509H110.081C109.719 6.96509 109.425 7.25587 109.425 7.61456V23.2118C109.425 23.5705 109.719 23.8613 110.081 23.8613H111.682C112.044 23.8613 112.338 23.5705 112.338 23.2118V7.61456C112.338 7.25587 112.044 6.96509 111.682 6.96509Z" fill="white"/>
<path d="M123.93 23.4468C124.028 23.6981 124.273 23.8646 124.543 23.8646H126.272C126.546 23.8646 126.787 23.6981 126.886 23.4468L135.438 1.43963C135.517 1.23728 135.488 1.01534 135.366 0.83584C135.244 0.6596 135.039 0.555161 134.824 0.555161H133.096C132.822 0.555161 132.581 0.721611 132.482 0.972916L125.408 19.2203L118.33 0.972916C118.231 0.721611 117.987 0.555161 117.717 0.555161H115.988C115.77 0.555161 115.569 0.6596 115.446 0.83584C115.324 1.01208 115.298 1.23728 115.374 1.43963L123.93 23.4468Z" fill="white"/>
<path d="M11.7594 0.000337207C5.27591 0.000337207 0 5.44746 0 12.1446V32.9997C0 33.3587 0.293656 33.6492 0.656602 33.6492H2.25356C2.61651 33.6492 2.91017 33.3587 2.91017 32.9997V20.0885C5.05155 22.7778 8.27846 24.377 11.7561 24.377C18.2397 24.377 23.5156 18.8907 23.5156 12.1446C23.5156 5.39851 18.2463 0.000337207 11.7594 0.000337207ZM20.6054 12.1446C20.6054 17.3012 16.6361 21.4951 11.7594 21.4951C6.88277 21.4951 2.91347 17.3012 2.91347 12.1446C2.91347 6.98793 6.88277 2.92462 11.7594 2.92462C16.6361 2.92462 20.6054 7.05974 20.6054 12.1446Z" fill="white"/>
<path d="M147.237 0.00033402C140.754 0.00033402 135.478 5.50621 135.478 12.2751C135.478 19.0441 140.754 24.377 147.237 24.377C150.712 24.377 153.939 22.7843 156.083 20.1113V23.2118C156.083 23.5708 156.377 23.8613 156.74 23.8613H158.34C158.703 23.8613 158.997 23.5708 158.997 23.2118V12.2719C158.997 5.50294 153.721 -0.00292969 147.237 -0.00292969V0.00033402ZM156.083 12.2751C156.083 17.36 152.114 21.4951 147.237 21.4951C142.361 21.4951 138.391 17.36 138.391 12.2751C138.391 7.19028 142.361 2.92462 147.237 2.92462C152.114 2.92462 156.083 7.11848 156.083 12.2751Z" fill="white"/>
<path d="M76.8125 4.42266C77.9442 4.42266 78.8615 3.51525 78.8615 2.3959C78.8615 1.27655 77.9442 0.369138 76.8125 0.369138C75.6809 0.369138 74.7635 1.27655 74.7635 2.3959C74.7635 3.51525 75.6809 4.42266 76.8125 4.42266Z" fill="white"/>
<path d="M110.402 4.42266C111.533 4.42266 112.451 3.51525 112.451 2.3959C112.451 1.27655 111.533 0.369138 110.402 0.369138C109.27 0.369138 108.353 1.27655 108.353 2.3959C108.353 3.51525 109.27 4.42266 110.402 4.42266Z" fill="white"/>
</g>
<defs>
<clipPath id="clip0_1568_1019">
<rect width="159" height="60" fill="white"/>
</clipPath>
</defs>
</svg>
