<svg width="138" height="91" viewBox="0 0 138 91" fill="none" xmlns="http://www.w3.org/2000/svg">
<g clip-path="url(#clip0_2607_474)">
<path fill-rule="evenodd" clip-rule="evenodd" d="M137.838 23.9448C137.838 15.9131 132.851 10.4226 125.521 10.4223C118.041 10.4226 112.797 16.1681 112.797 23.2848C112.797 31.1657 118.446 36.1987 125.928 36.1987C129.747 36.1987 133.563 35.0798 136.059 32.7921L133.208 28.6229C131.629 30.148 128.931 31.0631 126.64 31.0631C122.766 31.0631 120.341 28.8294 119.686 26.0301C119.608 25.6932 119.864 25.3687 120.211 25.3687H136.413C137.2 25.3687 137.838 24.731 137.838 23.9448ZM130.974 20.9971H120.104C119.764 20.9971 119.503 20.6838 119.576 20.3524C120.087 18.0591 121.85 15.5579 125.522 15.5579C129.431 15.5579 131.127 18.1479 131.506 20.3801C131.561 20.7032 131.303 20.9971 130.974 20.9971Z" fill="white"/>
<path d="M126.298 3.67838L128.773 7.32071H133.26L130.052 2.41251C129.068 0.906769 127.409 0 125.591 0C123.773 0 122.079 0.924794 121.101 2.45549L117.99 7.32071H122.405L124.861 3.68808C125.227 3.22915 125.926 3.22499 126.298 3.67838Z" fill="white"/>
<path d="M100.428 10.4223C105.466 10.4223 108.52 12.6074 110.15 14.8965L105.924 18.8106C104.754 17.133 102.972 16.1666 100.733 16.1666C96.8144 16.1666 94.0659 19.0144 94.0659 23.2835C94.0659 27.5525 96.8144 30.453 100.733 30.453C102.972 30.453 104.753 29.4353 105.924 27.809L110.15 31.7231C108.888 33.495 106.773 35.206 103.541 35.8881C92.9416 38.1231 85.5374 31.0118 87.6779 20.4051C88.8841 14.4334 93.8521 10.4209 100.428 10.4209V10.4223Z" fill="white"/>
<path fill-rule="evenodd" clip-rule="evenodd" d="M71.1623 10.4223C63.0683 10.4223 58.1822 16.3191 58.1822 23.2848C58.1822 30.3005 63.0183 36.1987 71.1623 36.1987C79.3063 36.1987 84.191 30.2506 84.191 23.2848C84.191 16.3191 79.2563 10.4223 71.1623 10.4223ZM71.1623 16.168C75.1836 16.168 77.474 19.4706 77.474 23.2848C77.474 27.1476 75.1822 30.453 71.1623 30.453C67.1423 30.453 64.902 27.0977 64.902 23.2848C64.902 19.472 67.141 16.168 71.1623 16.168Z" fill="white"/>
<path d="M30.1384 11.031L38.8807 32.774H38.8834C39.6844 34.765 41.6166 36.0684 43.764 36.0684C45.9114 36.0684 47.8436 34.765 48.6432 32.774L57.3854 11.031H50.2756L44.2484 27.0852C44.0694 27.558 43.4017 27.558 43.2254 27.0852L37.1969 11.031H30.1384Z" fill="white"/>
<path d="M83.9883 53.2193C75.0212 53.211 68.3903 49.4883 64.4994 46.4837C62.8892 45.2428 62.756 42.8664 64.1912 41.4272C65.3836 40.2278 67.2867 40.0767 68.629 41.1055C71.5926 43.378 76.9048 46.4435 83.9966 46.4518H84.0216C91.0898 46.4518 96.3938 43.4099 99.3587 41.1512C100.704 40.1266 102.604 40.2833 103.796 41.484C105.226 42.9274 105.086 45.3038 103.474 46.5406C99.5822 49.5271 92.961 53.2193 84.023 53.2193H83.9883Z" fill="white"/>
<path d="M9.47655 34.9966C9.47655 35.6094 9.9957 36.1751 10.655 36.1751L10.6537 36.1737H14.6611C15.369 36.1737 15.8882 35.7023 15.8882 34.9952V29.0624C15.7924 28.591 15.6522 28.1695 15.4634 27.7452C15.2746 27.4152 14.9915 27.1324 14.6611 26.8509C14.2849 26.6138 13.8144 26.4738 13.2008 26.4738H24.0905C24.797 26.4738 25.3148 26.0024 25.3148 25.2966V21.6696C25.3148 20.9153 24.8456 20.4467 24.0905 20.4467H15.8882V12.2053C15.8882 11.4996 15.3676 11.0268 14.6611 11.0268H12.1167C11.9737 11.0268 11.7392 11.0753 11.4546 11.2154C11.1256 11.3568 10.8424 11.4982 10.5607 11.7339C10.2303 11.9696 9.99431 12.2053 9.80553 12.5353C9.56956 12.8639 9.47655 13.2411 9.47655 13.6639V20.4467H1.1785C0.800933 20.4467 0.519149 20.5396 0.330368 20.7753C0.0957789 21.011 0 21.341 0 21.6696V25.2966C0 25.9081 0.520537 26.4738 1.17988 26.4738H9.47655V34.9966Z" fill="white"/>
<path fill-rule="evenodd" clip-rule="evenodd" d="M53.3322 77.9714V66.8877H54.8299V71.1082C55.4615 70.2444 56.4096 69.7453 57.4576 69.7453C59.5536 69.7453 61.0347 71.391 61.0347 73.9658C61.0347 76.5405 59.5383 78.1696 57.4576 78.1696C56.3763 78.1696 55.4282 77.622 54.8299 76.8247V77.9714H53.3322ZM54.8299 75.6781C55.2283 76.3256 56.1444 76.8414 57.0592 76.8414C58.557 76.8414 59.4884 75.6448 59.4884 73.9658C59.4884 72.2867 58.557 71.0749 57.0592 71.0749C56.1444 71.0749 55.2297 71.624 54.8299 72.2715V75.6781Z" fill="white"/>
<path d="M92.9776 68.9868V73.7855L92.8805 73.9311L92.7472 73.8271L90.815 70.8503C90.0085 69.6066 89.4394 68.8537 87.9652 68.8537C86.591 68.8537 85.9164 69.7134 85.314 70.8503L82.4961 76.1481L82.3559 76.2757L82.2338 76.1814L78.0417 68.9855H74.1786L79.2535 77.4583C80.0558 78.7963 80.9567 79.649 82.299 79.649C83.905 79.649 84.5935 78.7242 85.2126 77.5221L87.8334 72.4531L87.9652 72.3436L88.0957 72.4531L91.5673 77.7523C92.2683 78.824 93.1067 79.5838 94.1548 79.5838C95.497 79.5838 96.1842 78.7991 96.1842 77.163V68.9855H92.9749L92.9776 68.9868Z" fill="white"/>
<path d="M101.591 79.4868H98.3815V68.9869H101.591V79.4868Z" fill="white"/>
<path d="M108.975 72.1273H103.626V68.9869H111.546C113.243 68.9869 114.3 69.6662 114.399 70.8753C114.506 72.1952 113.814 72.8926 112.469 73.6968L107.267 76.8039L107.153 76.944L107.267 77.066L112.403 79.6504C113.782 80.345 114.654 81.1866 114.654 82.8227C114.654 84.1635 113.875 85.0175 112.368 85.8966L103.627 91.0003V87.1417L111.047 82.8893L111.145 82.7673L111.015 82.6272L105.55 79.8473C104.352 79.2358 103.492 78.4719 103.492 77.0993C103.492 75.7266 104.252 75.0528 105.55 74.3193L109.024 72.3574L109.132 72.2243L108.975 72.1273Z" fill="white"/>
<path d="M62.7875 79.7665C62.7867 79.7662 62.7859 79.7658 62.7851 79.7655L62.7879 79.7641L62.7875 79.7665Z" fill="white"/>
<path d="M63.4514 79.8986C63.2524 79.8986 62.9708 79.8491 62.7875 79.7665L62.5561 81.1104C62.7893 81.1769 63.2376 81.2269 63.4875 81.2269C64.6521 81.2102 65.5335 80.7624 66.0499 79.4993L70.0088 69.9435H68.3944L65.882 76.2424L63.3695 69.9435H61.7718L65.0824 78.0532L64.616 79.1166C64.3662 79.7156 63.9997 79.8986 63.4514 79.8986Z" fill="white"/>
</g>
<defs>
<clipPath id="clip0_2607_474">
<rect width="137.838" height="91" fill="white"/>
</clipPath>
</defs>
</svg>
